<svg width="378" height="151" viewBox="0 0 378 151">
    <g fill="#fff">
        <path d="M75.3 69.3c1.1-3.1 2.8-5.9 5-8.2 2.2-2.3 4.8-4.2 7.9-5.5 3-1.3 6.5-2 10.3-2 3.8 0 7.2.7 10.3 2 3 1.3 5.7 3.2 7.9 5.5s3.9 5.1 5 8.2c1.1 3.1 1.7 6.6 1.7 10.3 0 3.7-.6 7.1-1.7 10.3-1.1 3.1-2.8 5.9-5 8.2-2.2 2.3-4.8 4.2-7.9 5.5-3 1.3-6.5 2-10.3 2-3.8 0-7.2-.7-10.3-2-3-1.3-5.7-3.2-7.9-5.5s-3.9-5.1-5-8.2c-1.1-3.1-1.7-6.6-1.7-10.3 0-3.8.6-7.2 1.7-10.3M63.9 94.5c1.9 4.5 4.5 8.4 7.8 11.6 3.3 3.2 7.2 5.8 11.8 7.6 4.6 1.8 9.6 2.7 15 2.7s10.4-.9 15-2.7c4.6-1.8 8.5-4.3 11.8-7.6 3.3-3.2 5.9-7.1 7.8-11.6 1.9-4.5 2.8-9.5 2.8-15s-1-10.5-2.8-15c-1.9-4.5-4.5-8.4-7.8-11.6-3.3-3.2-7.2-5.8-11.8-7.6-4.6-1.8-9.6-2.7-15-2.7s-10.4.9-15 2.7c-4.6 1.8-8.5 4.3-11.8 7.6-3.3 3.2-5.9 7.1-7.8 11.6C62 69 61 74 61 79.5s1 10.5 2.9 15M140.6 0h11.7v114.5h-11.7zm30.5 69.3c1.1-3.1 2.8-5.9 5-8.2 2.2-2.3 4.8-4.2 7.9-5.5 3-1.3 6.5-2 10.3-2 3.8 0 7.2.7 10.3 2 3 1.3 5.7 3.2 7.9 5.5s3.9 5.1 5 8.2c1.1 3.1 1.7 6.6 1.7 10.3 0 3.7-.6 7.1-1.7 10.3-1.1 3.1-2.8 5.9-5 8.2-2.2 2.3-4.8 4.2-7.9 5.5-3 1.3-6.5 2-10.3 2-3.8 0-7.2-.7-10.3-2-3-1.3-5.7-3.2-7.9-5.5s-3.9-5.1-5-8.2c-1.1-3.1-1.7-6.6-1.7-10.3 0-3.8.5-7.2 1.7-10.3m-11.5 25.2c1.9 4.5 4.5 8.4 7.8 11.6 3.3 3.2 7.2 5.8 11.8 7.6 4.6 1.8 9.6 2.7 15 2.7s10.4-.9 15-2.7c4.6-1.8 8.5-4.3 11.8-7.6 3.3-3.2 5.9-7.1 7.8-11.6 1.9-4.5 2.8-9.5 2.8-15s-.9-10.5-2.8-15-4.5-8.4-7.8-11.6c-3.3-3.2-7.2-5.8-11.8-7.6-4.6-1.8-9.6-2.7-15-2.7s-10.4.9-15 2.7c-4.6 1.8-8.5 4.3-11.8 7.6-3.3 3.2-5.9 7.1-7.8 11.6-1.9 4.5-2.8 9.5-2.8 15s.9 10.5 2.8 15m101.3-50h-1.3c-4.1.1-7.7.8-10.5 2.1-3.2 1.4-5.8 3.5-7.7 6.1-1.9 2.6-3.3 5.7-4.1 9.2-.8 3.5-1.2 7.5-1.2 11.8v42.7h11.7V76.2c0-3 .1-5.8.2-8.4.2-2.6.7-4.8 1.5-6.7.8-1.8 2.1-3.3 3.8-4.3 1.6-1 3.7-1.5 6.4-1.5h6.4V44.5h-5.2zM311.3 0h-5c-4.1.1-7.7.8-10.6 2.1-3.2 1.4-5.8 3.5-7.7 6.1-1.9 2.6-3.3 5.7-4.1 9.2-.8 3.5-1.2 7.5-1.2 11.8v15.3h-12.5v10.8h12.5v59.1h11.7V55.3h16.9L307 44.5h-12.6V31.7c0-3 .1-5.8.2-8.4.1-2.6.6-4.8 1.5-6.7.8-1.8 2.1-3.3 3.8-4.3 1.6-1 3.7-1.5 6.4-1.5h5V0zm55.5 44.5l-21.7 54.7-22.4-54.7h-11.1l27.7 69.5-14.5 36.4h11.9l41.2-105.9z"/>
        <path d="M62.5 51.4c-2.9-2.5-6.3-4.6-10.1-6.1-4.6-1.8-9.6-2.7-15-2.7s-10.4.9-15 2.7c-4.6 1.8-8.5 4.3-11.8 7.6-3.3 3.3-5.9 7.1-7.8 11.6C.9 69 0 74 0 79.5s.9 10.5 2.8 15 4.5 8.4 7.8 11.6c3.3 3.2 7.2 5.8 11.8 7.6 4.6 1.8 9.6 2.7 15 2.7s10.4-.9 15-2.7c3.8-1.5 7.2-3.5 10.1-6.1-.6-.5-1.2-1-1.7-1.5-2.3-2.2-4.2-4.8-5.8-7.6-2.1 2.1-4.5 3.8-7.4 5.1-3 1.3-6.5 2-10.3 2-3.8 0-7.2-.7-10.3-2-3-1.3-5.7-3.2-7.9-5.5s-3.9-5.1-5-8.2c-1.1-3.1-1.7-6.6-1.7-10.3 0-3.7.6-7.1 1.7-10.3 1.1-3.1 2.8-5.9 5-8.2 2.2-2.3 4.8-4.2 7.9-5.5 3-1.3 6.5-2 10.3-2 3.8 0 7.2.7 10.3 2 2.8 1.3 5.3 3 7.4 5.1 1.6-2.8 3.5-5.4 5.8-7.6.6-.7 1.2-1.2 1.7-1.7"/>
    </g>
</svg>
